<?xml version="1.0" encoding="UTF-8"?>
<svg xmlns="http://www.w3.org/2000/svg" xmlns:xlink="http://www.w3.org/1999/xlink" width="357.098pt" height="155.776pt" viewBox="0 0 357.098 155.776">
<defs>
<g>
<g id="glyph-0-0">
<path d="M 1.171875 -0.75 C 1.109375 -0.484375 0.953125 -0.328125 0.546875 -0.296875 L 0.234375 -0.265625 C 0.203125 -0.234375 0.171875 -0.0625 0.21875 0.015625 C 0.671875 0.015625 1.03125 0 1.421875 0 L 3.4375 0 C 3.703125 0 4.578125 0.015625 4.578125 0.015625 C 4.71875 -0.53125 4.9375 -1.109375 5.15625 -1.625 C 5.09375 -1.671875 4.96875 -1.71875 4.875 -1.6875 C 4.59375 -1.078125 4.140625 -0.390625 3.40625 -0.390625 L 2.3125 -0.390625 C 2.078125 -0.390625 1.9375 -0.515625 1.9375 -0.75 C 1.9375 -0.78125 1.9375 -0.84375 1.953125 -0.890625 L 2.890625 -5.671875 C 2.9375 -5.953125 3.09375 -6.09375 3.515625 -6.125 L 3.8125 -6.15625 C 3.859375 -6.203125 3.875 -6.359375 3.84375 -6.453125 C 3.390625 -6.4375 3.03125 -6.4375 2.640625 -6.4375 C 2.265625 -6.4375 1.8125 -6.4375 1.375 -6.453125 C 1.34375 -6.40625 1.3125 -6.203125 1.34375 -6.15625 L 1.6875 -6.125 C 2.078125 -6.09375 2.171875 -5.96875 2.125 -5.671875 Z M 1.171875 -0.75 "/>
</g>
<g id="glyph-0-1">
<path d="M 3.234375 -2.828125 C 3.078125 -2.828125 2.984375 -2.828125 2.984375 -2.875 C 2.984375 -2.90625 3 -2.921875 3.015625 -2.953125 L 4.46875 -5.484375 L 4.484375 -5.484375 L 4.890625 -2.828125 Z M 1.78125 -0.78125 L 2.609375 -2.234375 C 2.6875 -2.359375 2.75 -2.40625 2.984375 -2.40625 L 4.96875 -2.40625 L 5.21875 -0.71875 C 5.21875 -0.671875 5.21875 -0.640625 5.21875 -0.625 C 5.21875 -0.40625 5.0625 -0.3125 4.75 -0.296875 L 4.46875 -0.265625 C 4.421875 -0.265625 4.390625 -0.234375 4.390625 -0.1875 L 4.359375 0 L 4.375 0.015625 C 4.734375 0.015625 5.28125 0 5.640625 0 C 6.03125 0 6.421875 0.015625 6.765625 0.015625 L 6.78125 0 L 6.8125 -0.1875 C 6.8125 -0.234375 6.78125 -0.265625 6.734375 -0.265625 L 6.625 -0.28125 C 6.25 -0.3125 6.09375 -0.46875 6.03125 -0.859375 L 5.109375 -6.265625 C 5.078125 -6.453125 5.046875 -6.5625 4.921875 -6.5625 C 4.78125 -6.5625 4.6875 -6.46875 4.53125 -6.203125 L 1.390625 -1.015625 C 1.015625 -0.40625 0.734375 -0.296875 0.3125 -0.265625 C 0.265625 -0.265625 0.234375 -0.234375 0.234375 -0.1875 L 0.203125 0 L 0.203125 0.015625 C 0.5625 0.015625 0.734375 0 1.09375 0 C 1.484375 0 2 0.015625 2.34375 0.015625 L 2.375 0 L 2.390625 -0.1875 C 2.390625 -0.234375 2.375 -0.265625 2.328125 -0.265625 L 2.0625 -0.296875 C 1.8125 -0.3125 1.6875 -0.40625 1.6875 -0.546875 C 1.6875 -0.625 1.71875 -0.703125 1.78125 -0.78125 Z M 1.78125 -0.78125 "/>
</g>
<g id="glyph-0-2">
<path d="M 1.03125 -0.953125 C 0.734375 -0.953125 0.515625 -0.734375 0.515625 -0.453125 C 0.515625 -0.140625 0.765625 -0.046875 0.953125 -0.015625 C 1.140625 0 1.3125 0.0625 1.3125 0.296875 C 1.3125 0.5 0.953125 0.953125 0.421875 1.09375 C 0.421875 1.1875 0.453125 1.25 0.515625 1.328125 C 1.109375 1.21875 1.6875 0.734375 1.6875 0.046875 C 1.6875 -0.5625 1.4375 -0.953125 1.03125 -0.953125 Z M 1.03125 -0.953125 "/>
</g>
<g id="glyph-0-3">
<path d="M 5.609375 -6.4375 C 5.609375 -6.453125 5.59375 -6.46875 5.5625 -6.46875 C 5.390625 -6.4375 5.328125 -6.4375 5.109375 -6.4375 L 2.6875 -6.4375 C 2.3125 -6.4375 1.921875 -6.4375 1.46875 -6.453125 L 1.453125 -6.4375 L 1.421875 -6.234375 C 1.40625 -6.203125 1.40625 -6.15625 1.46875 -6.15625 L 1.75 -6.140625 C 2.046875 -6.109375 2.171875 -6.03125 2.171875 -5.828125 C 2.171875 -5.78125 2.171875 -5.734375 2.15625 -5.6875 L 1.203125 -0.71875 C 1.140625 -0.4375 1 -0.3125 0.625 -0.296875 L 0.328125 -0.265625 C 0.265625 -0.265625 0.25 -0.234375 0.234375 -0.203125 L 0.203125 0 L 0.21875 0.015625 C 0.671875 0.015625 1.0625 0 1.4375 0 L 3.484375 0 C 3.953125 0 4.703125 0.015625 4.703125 0.015625 C 4.921875 -0.5 5.15625 -1.125 5.390625 -1.640625 L 5.09375 -1.6875 C 4.765625 -0.984375 4.28125 -0.390625 3.546875 -0.390625 L 2.25 -0.390625 C 2.078125 -0.390625 1.9375 -0.421875 1.9375 -0.609375 C 1.9375 -0.640625 1.953125 -0.671875 1.96875 -0.71875 L 2.453125 -3.21875 L 3.671875 -3.21875 C 3.953125 -3.21875 4.078125 -3.140625 4.078125 -2.921875 C 4.078125 -2.890625 4.078125 -2.875 4.078125 -2.84375 L 4.0625 -2.59375 C 4.046875 -2.5625 4.0625 -2.515625 4.109375 -2.515625 L 4.3125 -2.515625 L 4.359375 -2.546875 C 4.40625 -2.9375 4.453125 -3.203125 4.5 -3.40625 C 4.53125 -3.609375 4.59375 -3.90625 4.703125 -4.3125 L 4.671875 -4.34375 L 4.46875 -4.34375 C 4.421875 -4.34375 4.390625 -4.3125 4.375 -4.265625 L 4.3125 -4.015625 C 4.21875 -3.734375 4.078125 -3.59375 3.75 -3.59375 L 2.53125 -3.59375 L 2.9375 -5.6875 C 2.984375 -5.9375 3.125 -6.03125 3.34375 -6.03125 L 4.34375 -6.03125 C 5.0625 -6.03125 5.15625 -5.625 5.25 -4.9375 L 5.515625 -5 C 5.5625 -5.40625 5.609375 -6.359375 5.609375 -6.4375 Z M 5.609375 -6.4375 "/>
</g>
<g id="glyph-0-4">
<path d="M 3.65625 -3.21875 C 3.953125 -3.21875 4.0625 -3.140625 4.0625 -2.921875 C 4.0625 -2.890625 4.0625 -2.875 4.0625 -2.84375 L 4.046875 -2.59375 C 4.03125 -2.5625 4.046875 -2.515625 4.09375 -2.515625 L 4.3125 -2.515625 L 4.359375 -2.546875 C 4.390625 -2.9375 4.453125 -3.203125 4.484375 -3.40625 C 4.515625 -3.609375 4.578125 -3.90625 4.6875 -4.3125 L 4.671875 -4.34375 L 4.453125 -4.34375 C 4.421875 -4.34375 4.375 -4.3125 4.359375 -4.265625 L 4.296875 -4.015625 C 4.203125 -3.734375 4.0625 -3.59375 3.734375 -3.59375 L 2.515625 -3.59375 L 2.921875 -5.6875 C 2.96875 -5.9375 3.109375 -6.03125 3.34375 -6.03125 L 4.34375 -6.03125 C 5.046875 -6.03125 5.15625 -5.625 5.234375 -4.9375 L 5.515625 -5 C 5.546875 -5.40625 5.59375 -6.359375 5.59375 -6.4375 C 5.59375 -6.453125 5.578125 -6.46875 5.5625 -6.46875 C 5.390625 -6.4375 5.328125 -6.4375 5.109375 -6.4375 L 2.671875 -6.4375 C 2.296875 -6.4375 1.90625 -6.4375 1.46875 -6.453125 L 1.453125 -6.4375 L 1.40625 -6.234375 C 1.390625 -6.203125 1.390625 -6.15625 1.46875 -6.15625 L 1.75 -6.140625 C 2.046875 -6.109375 2.15625 -6.03125 2.15625 -5.828125 C 2.15625 -5.796875 2.15625 -5.734375 2.15625 -5.6875 L 1.1875 -0.734375 C 1.140625 -0.453125 1 -0.3125 0.59375 -0.296875 L 0.328125 -0.265625 C 0.28125 -0.265625 0.25 -0.234375 0.234375 -0.1875 L 0.203125 0 L 0.21875 0.015625 C 0.671875 0.015625 1.0625 0 1.421875 0 C 1.8125 0 2.203125 0.015625 2.65625 0.015625 L 2.671875 0 L 2.71875 -0.1875 C 2.71875 -0.234375 2.6875 -0.265625 2.640625 -0.265625 L 2.40625 -0.296875 C 2.078125 -0.3125 1.9375 -0.390625 1.9375 -0.59375 C 1.9375 -0.640625 1.953125 -0.6875 1.96875 -0.734375 L 2.4375 -3.21875 Z M 3.65625 -3.21875 "/>
</g>
<g id="glyph-0-5">
<path d="M 2.984375 -5.546875 L 3.015625 -5.546875 L 4.984375 -0.34375 L 0.96875 -0.34375 Z M 3.515625 -6.5625 L 2.890625 -6.5625 L 0.34375 -0.203125 C 0.3125 -0.09375 0.296875 -0.09375 0.296875 -0.0625 C 0.296875 -0.015625 0.375 0 0.515625 0 L 5.765625 0 C 5.9375 0 5.984375 -0.015625 5.984375 -0.0625 C 5.984375 -0.078125 5.96875 -0.109375 5.9375 -0.203125 Z M 3.515625 -6.5625 "/>
</g>
<g id="glyph-0-6">
<path d="M 0.3125 -0.71875 C 0.265625 -0.515625 0.203125 -0.265625 0.203125 -0.171875 C 0.203125 0 0.296875 0.09375 0.59375 0.09375 C 0.984375 0.09375 0.984375 -0.34375 1.0625 -0.71875 L 1.421875 -2.328125 C 1.5 -2.359375 1.5625 -2.359375 1.640625 -2.359375 C 1.71875 -2.359375 1.78125 -2.296875 1.828125 -2.203125 C 2.015625 -1.890625 2.125 -1.375 2.328125 -0.921875 C 2.65625 -0.203125 2.90625 0.09375 3.3125 0.09375 C 3.65625 0.09375 4 -0.203125 4.3125 -0.765625 C 4.25 -0.84375 4.203125 -0.890625 4.09375 -0.890625 C 3.890625 -0.609375 3.6875 -0.421875 3.578125 -0.421875 C 3.390625 -0.421875 3.328125 -0.59375 3.21875 -0.796875 C 2.9375 -1.34375 2.8125 -1.734375 2.671875 -2.015625 C 2.515625 -2.328125 2.453125 -2.46875 2.125 -2.546875 L 2.125 -2.59375 L 2.640625 -3.046875 C 3.125 -3.484375 3.40625 -3.671875 3.59375 -3.671875 C 3.859375 -3.671875 3.8125 -3.53125 4.15625 -3.53125 C 4.296875 -3.53125 4.609375 -3.71875 4.609375 -4.03125 C 4.609375 -4.3125 4.390625 -4.375 4.125 -4.375 C 3.8125 -4.375 3.203125 -4 2.484375 -3.359375 L 2.078125 -3.015625 C 1.90625 -2.875 1.703125 -2.71875 1.5 -2.71875 L 2.21875 -5.8125 C 2.359375 -6.453125 2.46875 -6.859375 2.46875 -6.859375 C 2.46875 -6.921875 2.4375 -6.953125 2.34375 -6.953125 C 2.078125 -6.859375 1.359375 -6.734375 0.953125 -6.703125 L 0.921875 -6.453125 C 0.921875 -6.4375 0.921875 -6.40625 0.96875 -6.40625 L 1.28125 -6.390625 C 1.40625 -6.390625 1.484375 -6.328125 1.484375 -6.109375 C 1.484375 -6 1.46875 -5.828125 1.421875 -5.609375 Z M 0.3125 -0.71875 "/>
</g>
<g id="glyph-0-7">
<path d="M 4.625 -3.078125 C 4.75 -3.078125 4.890625 -3.3125 4.890625 -3.40625 C 4.890625 -3.484375 4.84375 -3.578125 4.75 -3.578125 L 0.84375 -3.578125 C 0.71875 -3.578125 0.59375 -3.390625 0.59375 -3.234375 C 0.59375 -3.15625 0.640625 -3.078125 0.734375 -3.078125 Z M 4.625 -1.421875 C 4.75 -1.421875 4.890625 -1.65625 4.890625 -1.75 C 4.890625 -1.828125 4.84375 -1.921875 4.75 -1.921875 L 0.84375 -1.921875 C 0.71875 -1.921875 0.59375 -1.734375 0.59375 -1.578125 C 0.59375 -1.5 0.640625 -1.421875 0.734375 -1.421875 Z M 4.625 -1.421875 "/>
</g>
<g id="glyph-0-8">
<path d="M 0.703125 -2.515625 C 0.703125 -2.21875 0.953125 -1.984375 1.25 -1.984375 C 1.546875 -1.984375 1.78125 -2.21875 1.78125 -2.515625 C 1.78125 -2.828125 1.546875 -3.0625 1.25 -3.0625 C 0.953125 -3.0625 0.703125 -2.828125 0.703125 -2.515625 Z M 0.703125 -2.515625 "/>
</g>
<g id="glyph-1-0">
<path d="M 2.40625 -0.34375 C 1.859375 -0.34375 1.140625 -0.828125 0.828125 -1.421875 L 0.734375 -1.40625 C 0.6875 -1.046875 0.578125 -0.671875 0.5 -0.375 L 0.515625 -0.34375 C 0.515625 -0.34375 1.171875 0.09375 2.328125 0.09375 C 3.5625 0.09375 4.5 -0.640625 4.5 -1.796875 C 4.5 -2.953125 3.515625 -3.484375 2.71875 -3.796875 C 2.21875 -3.984375 1.5 -4.28125 1.5 -5.109375 C 1.5 -5.46875 1.703125 -5.859375 1.96875 -6 C 2.140625 -6.09375 2.34375 -6.125 2.578125 -6.125 C 3.125 -6.125 3.65625 -5.6875 3.921875 -5.078125 L 4.03125 -5.078125 C 4.0625 -5.4375 4.171875 -5.78125 4.25 -6.078125 L 4.234375 -6.109375 C 4.234375 -6.109375 3.8125 -6.5625 2.65625 -6.5625 C 2.375 -6.5625 2.078125 -6.515625 1.796875 -6.390625 C 1.203125 -6.140625 0.703125 -5.5625 0.703125 -4.828125 C 0.703125 -3.78125 1.578125 -3.296875 2.40625 -2.953125 C 3.0625 -2.6875 3.578125 -2.359375 3.578125 -1.5 C 3.578125 -0.75 3 -0.34375 2.40625 -0.34375 Z M 2.40625 -0.34375 "/>
</g>
<g id="glyph-1-1">
<path d="M 0.953125 -4.28125 C 0.734375 -4.28125 0.53125 -4.28125 0.40625 -4.296875 C 0.34375 -4.125 0.28125 -4.03125 0.1875 -3.890625 L 0.234375 -3.8125 C 0.40625 -3.828125 0.71875 -3.828125 0.953125 -3.84375 L 0.953125 -2.46875 C 0.953125 -1.875 0.921875 -1.15625 0.921875 -0.859375 C 0.921875 -0.203125 1.328125 0.09375 1.796875 0.09375 C 2.21875 0.09375 2.53125 0 2.953125 -0.265625 L 2.828125 -0.515625 C 2.515625 -0.40625 2.296875 -0.40625 2.046875 -0.4375 C 1.796875 -0.46875 1.71875 -0.703125 1.71875 -1.25 C 1.71875 -1.5625 1.75 -1.984375 1.75 -2.578125 L 1.75 -3.84375 L 2.125 -3.84375 C 2.359375 -3.84375 2.703125 -3.828125 2.84375 -3.8125 C 2.875 -3.984375 2.90625 -4.078125 2.953125 -4.234375 L 2.90625 -4.296875 C 2.734375 -4.28125 2.4375 -4.28125 2.21875 -4.28125 L 1.75 -4.28125 C 1.75 -5.015625 1.75 -5.15625 1.796875 -5.734375 C 1.796875 -5.796875 1.765625 -5.828125 1.703125 -5.828125 C 1.453125 -5.734375 1.328125 -5.625 1 -5.578125 L 0.984375 -5.546875 C 0.96875 -5.203125 0.953125 -4.859375 0.953125 -4.28125 Z M 0.953125 -4.28125 "/>
</g>
<g id="glyph-1-2">
<path d="M 3.09375 -2.25 L 3.046875 -1.0625 C 3.046875 -0.921875 2.984375 -0.859375 2.90625 -0.796875 C 2.625 -0.59375 2.296875 -0.40625 2 -0.40625 C 1.546875 -0.40625 1.25 -0.703125 1.25 -1.015625 C 1.25 -1.46875 1.46875 -1.796875 2.25 -2.015625 Z M 3.09375 -0.484375 C 3.203125 -0.078125 3.5 0.09375 3.875 0.09375 C 4.109375 0.09375 4.421875 0.046875 4.65625 -0.203125 L 4.578125 -0.453125 C 4.46875 -0.40625 4.390625 -0.40625 4.3125 -0.40625 C 4.21875 -0.40625 4.09375 -0.421875 4.015625 -0.484375 C 3.921875 -0.5625 3.859375 -0.8125 3.859375 -1.25 C 3.859375 -1.546875 3.890625 -2.65625 3.890625 -2.765625 C 3.890625 -4.109375 3 -4.375 2.25 -4.375 C 1.484375 -4.375 1.03125 -4 0.78125 -3.796875 L 0.75 -3.765625 L 0.921875 -3.09375 L 1.046875 -3.078125 C 1.328125 -3.53125 1.671875 -3.921875 2.140625 -3.921875 C 2.5 -3.921875 3.09375 -3.875 3.09375 -2.75 C 3.09375 -2.6875 3.0625 -2.640625 3.03125 -2.625 L 2.109375 -2.421875 C 1.09375 -2.1875 0.453125 -1.65625 0.453125 -0.984375 C 0.453125 -0.234375 0.953125 0.09375 1.6875 0.09375 C 2.25 0.09375 2.515625 -0.03125 3.046875 -0.484375 Z M 3.09375 -0.484375 "/>
</g>
<g id="glyph-1-3">
<path d="M 1.609375 -0.8125 L 1.609375 -3.390625 C 2 -3.78125 2.25 -3.984375 2.65625 -3.984375 C 3.265625 -3.984375 3.8125 -3.46875 3.8125 -2.234375 C 3.8125 -1 3.4375 -0.296875 2.5 -0.296875 C 2.1875 -0.296875 1.8125 -0.5625 1.609375 -0.8125 Z M 1.609375 -4.984375 C 1.609375 -5.71875 1.625 -6.234375 1.671875 -6.859375 C 1.671875 -6.921875 1.640625 -6.953125 1.578125 -6.953125 C 1.328125 -6.859375 1.109375 -6.78125 0.71875 -6.765625 L 0.703125 -6.734375 C 0.765625 -6.296875 0.8125 -5.5625 0.8125 -4.8125 L 0.8125 -0.734375 C 0.8125 -0.34375 0.8125 -0.1875 0.765625 0.015625 C 0.828125 0.078125 0.9375 0.09375 1.046875 0.09375 C 1.15625 -0.015625 1.265625 -0.1875 1.375 -0.390625 C 1.671875 -0.140625 2.125 0.09375 2.546875 0.09375 C 3.5625 0.09375 4.6875 -0.625 4.6875 -2.3125 C 4.6875 -3.53125 3.828125 -4.375 2.859375 -4.375 C 2.375 -4.375 1.953125 -4.25 1.609375 -3.875 Z M 1.609375 -4.984375 "/>
</g>
<g id="glyph-1-4">
<path d="M 1.90625 -4.4375 C 1.90625 -5.1875 1.921875 -5.90625 2 -6.4375 L 2 -6.453125 C 1.875 -6.4375 1.59375 -6.4375 1.46875 -6.4375 C 1.359375 -6.4375 1.09375 -6.4375 0.96875 -6.453125 L 0.953125 -6.4375 C 1.03125 -5.859375 1.046875 -5.1875 1.046875 -4.4375 L 1.046875 -2 C 1.046875 -1.25 1.03125 -0.53125 0.953125 0 L 0.953125 0.03125 C 0.953125 0.03125 1.140625 0 1.46875 0 L 4.203125 0 C 4.40625 0 4.640625 0.015625 4.796875 0.03125 L 4.8125 0 C 4.8125 -0.140625 4.796875 -0.34375 4.796875 -0.4375 C 4.796875 -0.53125 4.8125 -0.703125 4.8125 -0.78125 L 4.796875 -0.828125 C 4.796875 -0.828125 3.3125 -0.609375 1.984375 -0.609375 C 1.90625 -0.84375 1.90625 -1.828125 1.90625 -2 Z M 1.90625 -4.4375 "/>
</g>
<g id="glyph-1-5">
<path d="M 0.890625 -2.34375 L 0.890625 -1.796875 C 0.890625 -1.046875 0.875 -0.53125 0.8125 0 L 0.828125 0.03125 C 0.953125 0.015625 1.171875 0 1.296875 0 C 1.421875 0 1.640625 0.015625 1.765625 0.03125 L 1.78125 0 C 1.703125 -0.5625 1.6875 -1.03125 1.6875 -1.796875 L 1.6875 -2.5 C 1.6875 -3.25 1.71875 -3.609375 1.78125 -4.21875 C 1.78125 -4.3125 1.765625 -4.3125 1.6875 -4.3125 C 1.46875 -4.28125 1.03125 -4.28125 0.828125 -4.3125 L 0.8125 -4.28125 C 0.875 -3.84375 0.890625 -3.09375 0.890625 -2.34375 Z M 0.796875 -5.953125 C 0.796875 -5.6875 1.03125 -5.4375 1.3125 -5.4375 C 1.578125 -5.4375 1.8125 -5.6875 1.8125 -5.953125 C 1.8125 -6.21875 1.578125 -6.453125 1.3125 -6.453125 C 1.03125 -6.453125 0.796875 -6.21875 0.796875 -5.953125 Z M 0.796875 -5.953125 "/>
</g>
<g id="glyph-1-6">
<path d="M 4.578125 -1.796875 C 4.578125 -2.109375 4.609375 -2.484375 4.609375 -2.796875 C 4.609375 -3.84375 4.265625 -4.375 3.375 -4.375 C 2.984375 -4.375 2.28125 -4.234375 1.640625 -3.484375 L 1.625 -3.515625 L 1.625 -4.234375 C 1.609375 -4.3125 1.609375 -4.34375 1.5625 -4.34375 C 1.328125 -4.28125 0.984375 -4.28125 0.75 -4.3125 L 0.734375 -4.28125 C 0.8125 -3.84375 0.828125 -3.09375 0.828125 -2.34375 L 0.828125 -1.796875 C 0.828125 -1.046875 0.8125 -0.53125 0.734375 0 L 0.75 0.03125 C 0.875 0.015625 1.109375 0 1.21875 0 C 1.34375 0 1.578125 0.015625 1.6875 0.03125 L 1.71875 0 C 1.640625 -0.5625 1.625 -1.03125 1.625 -1.796875 L 1.625 -2.953125 C 2.140625 -3.5625 2.71875 -3.78125 3.078125 -3.78125 C 3.578125 -3.78125 3.78125 -3.578125 3.78125 -2.765625 L 3.78125 -1.796875 C 3.78125 -1.046875 3.765625 -0.53125 3.703125 0 L 3.71875 0.03125 C 3.84375 0.015625 4.0625 0 4.1875 0 C 4.3125 0 4.53125 0.015625 4.65625 0.03125 L 4.671875 0 C 4.59375 -0.5625 4.578125 -1.03125 4.578125 -1.796875 Z M 4.578125 -1.796875 "/>
</g>
<g id="glyph-1-7">
<path d="M 1.25 -2.71875 C 1.421875 -3.765625 2.0625 -3.984375 2.375 -3.984375 C 2.765625 -3.984375 3.21875 -3.609375 3.21875 -2.859375 C 3.21875 -2.765625 3.1875 -2.71875 3.078125 -2.71875 Z M 3.90625 -1.03125 C 3.5625 -0.65625 3.09375 -0.484375 2.546875 -0.484375 C 2.1875 -0.484375 1.71875 -0.625 1.453125 -1.0625 C 1.28125 -1.328125 1.21875 -1.734375 1.21875 -2.328125 L 3.921875 -2.328125 C 4.03125 -2.328125 4.109375 -2.375 4.109375 -2.5 C 4.109375 -3.328125 3.703125 -4.375 2.375 -4.375 C 1.359375 -4.375 0.34375 -3.546875 0.34375 -2.078125 C 0.34375 -1.515625 0.453125 -0.953125 0.78125 -0.5625 C 1.125 -0.140625 1.6875 0.09375 2.375 0.09375 C 3.09375 0.09375 3.734375 -0.265625 4.109375 -0.78125 Z M 3.90625 -1.03125 "/>
</g>
<g id="glyph-1-8">
<path d="M 1.671875 -3.328125 L 1.671875 -4.234375 C 1.671875 -4.3125 1.640625 -4.34375 1.609375 -4.34375 C 1.375 -4.28125 1.015625 -4.28125 0.796875 -4.3125 L 0.78125 -4.28125 C 0.84375 -3.84375 0.875 -3.09375 0.875 -2.34375 L 0.875 -1.796875 C 0.875 -1.046875 0.84375 -0.53125 0.78125 0 L 0.796875 0.03125 C 0.921875 0.015625 1.140625 0 1.265625 0 C 1.390625 0 1.609375 0.015625 1.734375 0.03125 L 1.75 0 C 1.671875 -0.5625 1.671875 -1.03125 1.671875 -1.796875 L 1.671875 -2.3125 C 1.671875 -2.734375 1.78125 -2.96875 2 -3.296875 C 2.140625 -3.515625 2.375 -3.65625 2.5625 -3.65625 C 2.765625 -3.65625 2.953125 -3.625 3.078125 -3.515625 L 3.15625 -3.53125 L 3.359375 -4.265625 L 3.3125 -4.3125 C 3.15625 -4.359375 3.140625 -4.375 2.953125 -4.375 C 2.421875 -4.375 2.140625 -4.0625 1.6875 -3.3125 Z M 1.671875 -3.328125 "/>
</g>
<g id="glyph-1-9">
<path d="M 4.0625 -6.4375 L 1.46875 -6.4375 C 1.125 -6.4375 0.953125 -6.453125 0.953125 -6.453125 L 0.9375 -6.4375 C 1.015625 -5.859375 1.03125 -5.1875 1.03125 -4.4375 L 1.03125 -2 C 1.03125 -1.25 1.015625 -0.53125 0.9375 0 L 0.953125 0.03125 C 0.953125 0.03125 1.109375 0 1.46875 0 C 1.796875 0 1.96875 0.03125 1.96875 0.03125 L 2 0 C 1.90625 -0.5625 1.890625 -1.25 1.890625 -2 L 1.890625 -3.15625 C 2.375 -3.15625 3.421875 -3.125 4.109375 -3.0625 L 4.140625 -3.09375 C 4.125 -3.1875 4.109375 -3.3125 4.109375 -3.40625 C 4.109375 -3.5 4.125 -3.640625 4.140625 -3.734375 L 4.109375 -3.765625 C 3.53125 -3.703125 3.078125 -3.65625 1.890625 -3.65625 L 1.890625 -4.4375 C 1.890625 -4.609375 1.90625 -5.625 1.96875 -5.875 C 3.3125 -5.875 4.6875 -5.75 4.6875 -5.75 L 4.703125 -5.796875 C 4.6875 -5.875 4.6875 -6 4.6875 -6.09375 C 4.6875 -6.171875 4.6875 -6.296875 4.703125 -6.4375 L 4.6875 -6.453125 C 4.53125 -6.4375 4.296875 -6.4375 4.0625 -6.4375 Z M 4.0625 -6.4375 "/>
</g>
<g id="glyph-1-10">
<path d="M 3.59375 -1.125 C 3.234375 -0.65625 2.765625 -0.421875 2.375 -0.421875 C 1.828125 -0.421875 1.375 -0.953125 1.375 -2.203125 C 1.375 -3.703125 2.15625 -3.984375 2.65625 -3.984375 C 3.125 -3.984375 3.359375 -3.78125 3.59375 -3.40625 Z M 3.59375 -0.578125 L 3.625 -0.578125 L 3.671875 0 C 3.671875 0.015625 3.703125 0.03125 3.765625 0.03125 C 3.890625 0.015625 3.953125 0 4.09375 0 C 4.234375 0 4.421875 0.015625 4.546875 0.03125 L 4.5625 0 C 4.484375 -0.421875 4.390625 -1.171875 4.390625 -1.90625 L 4.390625 -4.984375 C 4.390625 -5.71875 4.4375 -6.234375 4.484375 -6.859375 C 4.484375 -6.921875 4.453125 -6.953125 4.390625 -6.953125 C 4.140625 -6.859375 3.921875 -6.78125 3.53125 -6.765625 L 3.515625 -6.734375 C 3.578125 -6.296875 3.59375 -5.5625 3.59375 -4.8125 L 3.59375 -4.15625 C 3.375 -4.28125 2.953125 -4.375 2.765625 -4.375 C 1.453125 -4.375 0.515625 -3.484375 0.515625 -2.125 C 0.515625 -0.890625 1.234375 0.09375 2.3125 0.09375 C 2.796875 0.09375 3.234375 -0.109375 3.59375 -0.578125 Z M 3.59375 -0.578125 "/>
</g>
<g id="glyph-1-11">
<path d="M 1.609375 -3.515625 L 1.609375 -4.234375 C 1.609375 -4.3125 1.59375 -4.34375 1.5625 -4.34375 C 1.328125 -4.28125 0.96875 -4.28125 0.75 -4.3125 L 0.734375 -4.28125 C 0.796875 -3.84375 0.8125 -3.09375 0.8125 -2.34375 L 0.8125 -1.796875 C 0.8125 -1.046875 0.8125 -0.53125 0.734375 0 L 0.75 0.03125 C 0.875 0.015625 1.09375 0 1.21875 0 C 1.328125 0 1.5625 0.015625 1.6875 0.03125 L 1.703125 0 C 1.625 -0.5625 1.609375 -1.03125 1.609375 -1.796875 L 1.609375 -3 C 2.078125 -3.484375 2.640625 -3.78125 2.984375 -3.78125 C 3.375 -3.78125 3.65625 -3.5625 3.65625 -2.890625 L 3.65625 -1.796875 C 3.65625 -1.046875 3.640625 -0.53125 3.5625 0 L 3.578125 0.03125 C 3.703125 0.015625 3.921875 0 4.046875 0 C 4.171875 0 4.390625 0.015625 4.515625 0.03125 L 4.53125 0 C 4.453125 -0.5625 4.453125 -1.03125 4.453125 -1.796875 L 4.453125 -2.796875 C 4.453125 -2.9375 4.453125 -3.0625 4.4375 -3.1875 C 4.921875 -3.703125 5.3125 -3.78125 5.703125 -3.78125 C 6.234375 -3.78125 6.5 -3.5625 6.5 -2.890625 L 6.5 -1.796875 C 6.5 -1.046875 6.484375 -0.53125 6.40625 0 L 6.4375 0.03125 C 6.546875 0.015625 6.78125 0 6.890625 0 C 7.015625 0 7.25 0.015625 7.359375 0.03125 L 7.390625 0 C 7.3125 -0.5625 7.296875 -1.03125 7.296875 -1.796875 L 7.296875 -2.796875 C 7.296875 -3.671875 7.140625 -4.375 6.0625 -4.375 C 5.515625 -4.375 4.9375 -4.1875 4.375 -3.59375 C 4.28125 -4.0625 3.875 -4.375 3.3125 -4.375 C 2.703125 -4.375 2.109375 -3.984375 1.640625 -3.484375 Z M 1.609375 -3.515625 "/>
</g>
<g id="glyph-2-0">
<path d="M -1.765625 -10.203125 C -1.921875 -10.234375 -2.078125 -10.234375 -2.21875 -10.203125 C -2.640625 -9.53125 -3.296875 -8.765625 -3.8125 -8.1875 C -3.734375 -8.0625 -3.625 -7.96875 -3.5 -7.953125 C -2.9375 -8.265625 -2.46875 -8.671875 -2.015625 -9.140625 C -1.578125 -8.6875 -1.078125 -8.296875 -0.53125 -7.953125 C -0.40625 -7.953125 -0.265625 -8.09375 -0.203125 -8.1875 C -0.71875 -8.765625 -1.34375 -9.53125 -1.765625 -10.203125 Z M -1.765625 -10.203125 "/>
</g>
<g id="glyph-2-1">
<path d="M 6.65625 -4.4375 C 6.84375 -4.4375 7.03125 -4.765625 7.03125 -4.90625 C 7.03125 -5.015625 6.96875 -5.15625 6.828125 -5.15625 L 1.203125 -5.15625 C 1.03125 -5.15625 0.859375 -4.875 0.859375 -4.65625 C 0.859375 -4.546875 0.9375 -4.4375 1.0625 -4.4375 Z M 6.65625 -2.046875 C 6.84375 -2.046875 7.03125 -2.375 7.03125 -2.53125 C 7.03125 -2.640625 6.96875 -2.765625 6.828125 -2.765625 L 1.203125 -2.765625 C 1.03125 -2.765625 0.859375 -2.5 0.859375 -2.28125 C 0.859375 -2.171875 0.9375 -2.046875 1.0625 -2.046875 Z M 6.65625 -2.046875 "/>
</g>
</g>
<clipPath id="clip-0">
<path clip-rule="nonzero" d="M 0 0 L 357.097656 0 L 357.097656 155.777344 L 0 155.777344 Z M 0 0 "/>
</clipPath>
</defs>
<g clip-path="url(#clip-0)">
<path fill-rule="nonzero" fill="rgb(95.292664%, 95.684814%, 95.684814%)" fill-opacity="1" d="M 0 147.804688 L 0 7.96875 C 0 3.566406 3.566406 0 7.96875 0 L 349.132812 0 C 353.535156 0 357.101562 3.566406 357.101562 7.96875 L 357.101562 147.804688 C 357.101562 152.207031 353.535156 155.777344 349.132812 155.777344 L 7.96875 155.777344 C 3.566406 155.777344 0 152.207031 0 147.804688 Z M 0 147.804688 "/>
</g>
<path fill-rule="nonzero" fill="rgb(28.234863%, 28.625488%, 28.625488%)" fill-opacity="1" d="M 28.59375 53.085938 L 28.59375 75.761719 L 32.847656 75.761719 L 32.847656 53.085938 Z M 28.59375 53.085938 "/>
<path fill="none" stroke-width="0.49814" stroke-linecap="butt" stroke-linejoin="miter" stroke="rgb(28.234863%, 28.625488%, 28.625488%)" stroke-opacity="1" stroke-miterlimit="10" d="M -4.25325 8.505031 L -9.921219 2.833156 " transform="matrix(1, 0, 0, -1, 32.847, 64.423)"/>
<path fill="none" stroke-width="0.49814" stroke-linecap="butt" stroke-linejoin="miter" stroke="rgb(28.234863%, 28.625488%, 28.625488%)" stroke-opacity="1" stroke-miterlimit="10" d="M -4.25325 2.833156 L -9.921219 -2.834813 " transform="matrix(1, 0, 0, -1, 32.847, 64.423)"/>
<path fill="none" stroke-width="0.49814" stroke-linecap="butt" stroke-linejoin="miter" stroke="rgb(28.234863%, 28.625488%, 28.625488%)" stroke-opacity="1" stroke-miterlimit="10" d="M -4.25325 -2.834813 L -9.921219 -8.502781 " transform="matrix(1, 0, 0, -1, 32.847, 64.423)"/>
<path fill="none" stroke-width="0.49814" stroke-linecap="butt" stroke-linejoin="miter" stroke="rgb(28.234863%, 28.625488%, 28.625488%)" stroke-opacity="1" stroke-miterlimit="10" d="M -4.25325 -8.502781 L -9.921219 -14.174656 " transform="matrix(1, 0, 0, -1, 32.847, 64.423)"/>
<path fill-rule="nonzero" fill="rgb(79.998779%, 87.057495%, 91.372681%)" fill-opacity="1" stroke-width="1.59404" stroke-linecap="butt" stroke-linejoin="miter" stroke="rgb(0%, 35.293579%, 58.036804%)" stroke-opacity="1" stroke-miterlimit="10" d="M 0.00065625 -5.67075 L 0.00065625 5.669094 L 79.37175 5.669094 L 79.37175 -5.67075 Z M 0.00065625 -5.67075 " transform="matrix(1, 0, 0, -1, 32.847, 64.423)"/>
<path fill="none" stroke-width="0.79701" stroke-linecap="butt" stroke-linejoin="miter" stroke="rgb(28.234863%, 28.625488%, 28.625488%)" stroke-opacity="1" stroke-miterlimit="10" d="M 3.707688 -15.592625 L 75.664719 -15.592625 " transform="matrix(1, 0, 0, -1, 32.847, 64.423)"/>
<path fill-rule="nonzero" fill="rgb(28.234863%, 28.625488%, 28.625488%)" fill-opacity="1" stroke-width="0.79701" stroke-linecap="butt" stroke-linejoin="miter" stroke="rgb(28.234863%, 28.625488%, 28.625488%)" stroke-opacity="1" stroke-miterlimit="10" d="M 4.844191 0.001805 L 1.285597 1.345555 L 2.469191 0.001805 L 1.285597 -1.345851 Z M 4.844191 0.001805 " transform="matrix(-1, 0, 0, 1, 38.82466, 80.01382)"/>
<path fill-rule="nonzero" fill="rgb(28.234863%, 28.625488%, 28.625488%)" fill-opacity="1" stroke-width="0.79701" stroke-linecap="butt" stroke-linejoin="miter" stroke="rgb(28.234863%, 28.625488%, 28.625488%)" stroke-opacity="1" stroke-miterlimit="10" d="M 4.841551 -0.001805 L 1.286864 1.345851 L 2.470458 -0.001805 L 1.286864 -1.345555 Z M 4.841551 -0.001805 " transform="matrix(1, 0, 0, -1, 106.24048, 80.01382)"/>
<g fill="rgb(28.234863%, 28.625488%, 28.625488%)" fill-opacity="1">
<use xlink:href="#glyph-0-0" x="69.857" y="90.494"/>
</g>
<g fill="rgb(0%, 35.293579%, 58.036804%)" fill-opacity="1">
<use xlink:href="#glyph-0-1" x="62.821" y="53.594"/>
<use xlink:href="#glyph-0-2" x="69.824736" y="53.594"/>
</g>
<g fill="rgb(0%, 35.293579%, 58.036804%)" fill-opacity="1">
<use xlink:href="#glyph-0-3" x="76.439929" y="53.594"/>
</g>
<path fill="none" stroke-width="1.59404" stroke-linecap="butt" stroke-linejoin="miter" stroke="rgb(90.194702%, 0%, 0%)" stroke-opacity="1" stroke-miterlimit="10" d="M 79.37175 0.001125 L 103.512375 0.001125 " transform="matrix(1, 0, 0, -1, 32.847, 64.423)"/>
<path fill-rule="nonzero" fill="rgb(90.194702%, 0%, 0%)" fill-opacity="1" stroke-width="1.17683" stroke-linecap="butt" stroke-linejoin="miter" stroke="rgb(90.194702%, 0%, 0%)" stroke-opacity="1" stroke-miterlimit="10" d="M 5.225406 0.001125 L 1.959781 1.184719 L 3.061344 0.001125 L 1.959781 -1.182469 Z M 5.225406 0.001125 " transform="matrix(1, 0, 0, -1, 133.591, 64.423)"/>
<g fill="rgb(90.194702%, 0%, 0%)" fill-opacity="1">
<use xlink:href="#glyph-0-4" x="144.997" y="67.646"/>
</g>
<path fill="none" stroke-width="0.79701" stroke-linecap="butt" stroke-linejoin="miter" stroke="rgb(90.979004%, 47.059631%, 27.450562%)" stroke-opacity="1" stroke-miterlimit="10" d="M 83.078781 15.590969 L 104.012375 15.590969 " transform="matrix(1, 0, 0, -1, 32.847, 64.423)"/>
<path fill-rule="nonzero" fill="rgb(90.979004%, 47.059631%, 27.450562%)" fill-opacity="1" stroke-width="0.79701" stroke-linecap="butt" stroke-linejoin="miter" stroke="rgb(90.979004%, 47.059631%, 27.450562%)" stroke-opacity="1" stroke-miterlimit="10" d="M 4.844237 -0.00014875 L 1.285644 1.347508 L 2.469237 -0.00014875 L 1.285644 -1.347805 Z M 4.844237 -0.00014875 " transform="matrix(-1, 0, 0, 1, 118.1958, 48.83218)"/>
<path fill-rule="nonzero" fill="rgb(90.979004%, 47.059631%, 27.450562%)" fill-opacity="1" stroke-width="0.79701" stroke-linecap="butt" stroke-linejoin="miter" stroke="rgb(90.979004%, 47.059631%, 27.450562%)" stroke-opacity="1" stroke-miterlimit="10" d="M 4.842407 0.00014875 L 1.28772 1.347805 L 2.471314 0.00014875 L 1.28772 -1.347508 Z M 4.842407 0.00014875 " transform="matrix(1, 0, 0, -1, 134.58728, 48.83218)"/>
<g fill="rgb(90.979004%, 47.059631%, 27.450562%)" fill-opacity="1">
<use xlink:href="#glyph-0-5" x="120.548" y="44.778"/>
<use xlink:href="#glyph-0-0" x="126.884239" y="44.778"/>
</g>
<path fill-rule="nonzero" fill="rgb(90.979004%, 47.059631%, 27.450562%)" fill-opacity="1" stroke-width="0.79701" stroke-linecap="butt" stroke-linejoin="miter" stroke="rgb(95.292664%, 95.684814%, 95.684814%)" stroke-opacity="1" stroke-miterlimit="10" d="M 2.488938 0.001125 C 2.488938 1.376125 1.375656 2.489406 0.00065625 2.489406 C -1.374344 2.489406 -2.491531 1.376125 -2.491531 0.001125 C -2.491531 -1.373875 -1.374344 -2.491063 0.00065625 -2.491063 C 1.375656 -2.491063 2.488938 -1.373875 2.488938 0.001125 Z M 2.488938 0.001125 " transform="matrix(1, 0, 0, -1, 32.847, 64.423)"/>
<path fill-rule="nonzero" fill="rgb(90.979004%, 47.059631%, 27.450562%)" fill-opacity="1" stroke-width="0.79701" stroke-linecap="butt" stroke-linejoin="miter" stroke="rgb(95.292664%, 95.684814%, 95.684814%)" stroke-opacity="1" stroke-miterlimit="10" d="M 81.860031 0.001125 C 81.860031 1.376125 80.74675 2.489406 79.37175 2.489406 C 77.99675 2.489406 76.879563 1.376125 76.879563 0.001125 C 76.879563 -1.373875 77.99675 -2.491063 79.37175 -2.491063 C 80.74675 -2.491063 81.860031 -1.373875 81.860031 0.001125 Z M 81.860031 0.001125 " transform="matrix(1, 0, 0, -1, 32.847, 64.423)"/>
<g fill="rgb(28.234863%, 28.625488%, 28.625488%)" fill-opacity="1">
<use xlink:href="#glyph-1-0" x="63.411" y="100.724"/>
<use xlink:href="#glyph-1-1" x="68.452096" y="100.724"/>
<use xlink:href="#glyph-1-2" x="71.839393" y="100.724"/>
<use xlink:href="#glyph-1-3" x="76.631423" y="100.724"/>
</g>
<g fill="rgb(28.234863%, 28.625488%, 28.625488%)" fill-opacity="1">
<use xlink:href="#glyph-2-0" x="182.228" y="69.545"/>
</g>
<g fill="rgb(28.234863%, 28.625488%, 28.625488%)" fill-opacity="1">
<use xlink:href="#glyph-2-1" x="176.303019" y="69.545"/>
</g>
<path fill-rule="nonzero" fill="rgb(28.234863%, 28.625488%, 28.625488%)" fill-opacity="1" d="M 208.597656 53.085938 L 208.597656 75.761719 L 212.847656 75.761719 L 212.847656 53.085938 Z M 208.597656 53.085938 "/>
<path fill="none" stroke-width="0.49814" stroke-linecap="butt" stroke-linejoin="miter" stroke="rgb(28.234863%, 28.625488%, 28.625488%)" stroke-opacity="1" stroke-miterlimit="10" d="M 180.000656 8.505031 L 174.332688 2.833156 " transform="matrix(1, 0, 0, -1, 32.847, 64.423)"/>
<path fill="none" stroke-width="0.49814" stroke-linecap="butt" stroke-linejoin="miter" stroke="rgb(28.234863%, 28.625488%, 28.625488%)" stroke-opacity="1" stroke-miterlimit="10" d="M 180.000656 2.833156 L 174.332688 -2.834813 " transform="matrix(1, 0, 0, -1, 32.847, 64.423)"/>
<path fill="none" stroke-width="0.49814" stroke-linecap="butt" stroke-linejoin="miter" stroke="rgb(28.234863%, 28.625488%, 28.625488%)" stroke-opacity="1" stroke-miterlimit="10" d="M 180.000656 -2.834813 L 174.332688 -8.502781 " transform="matrix(1, 0, 0, -1, 32.847, 64.423)"/>
<path fill="none" stroke-width="0.49814" stroke-linecap="butt" stroke-linejoin="miter" stroke="rgb(28.234863%, 28.625488%, 28.625488%)" stroke-opacity="1" stroke-miterlimit="10" d="M 180.000656 -8.502781 L 174.332688 -14.174656 " transform="matrix(1, 0, 0, -1, 32.847, 64.423)"/>
<path fill="none" stroke-width="1.59404" stroke-linecap="butt" stroke-linejoin="miter" stroke="rgb(0%, 35.293579%, 58.036804%)" stroke-opacity="1" stroke-miterlimit="10" d="M 180.000656 0.001125 L 181.24675 3.9855 L 183.738938 -3.98325 L 186.227219 3.9855 L 188.719406 -3.98325 L 191.211594 3.9855 L 193.699875 -3.98325 L 196.192063 3.9855 L 198.68425 -3.98325 L 201.172531 3.9855 L 203.664719 -3.98325 L 206.153 3.9855 L 208.645188 -3.98325 L 211.137375 3.9855 L 213.625656 -3.98325 L 216.117844 3.9855 L 218.610031 -3.98325 L 221.098313 3.9855 L 223.5905 -3.98325 L 226.078781 3.9855 L 228.570969 -3.98325 L 231.063156 3.9855 L 233.551438 -3.98325 L 236.043625 3.9855 L 238.531906 -3.98325 L 241.024094 3.9855 L 243.516281 -3.98325 L 246.004563 3.9855 L 248.49675 -3.98325 L 250.988938 3.9855 L 253.477219 -3.98325 L 255.969406 3.9855 L 257.2155 0.001125 L 259.37175 0.001125 " transform="matrix(1, 0, 0, -1, 32.847, 64.423)"/>
<g fill="rgb(0%, 35.293579%, 58.036804%)" fill-opacity="1">
<use xlink:href="#glyph-0-6" x="236.187" y="40.839"/>
</g>
<g fill="rgb(0%, 35.293579%, 58.036804%)" fill-opacity="1">
<use xlink:href="#glyph-0-7" x="243.768569" y="40.839"/>
</g>
<g fill="rgb(0%, 35.293579%, 58.036804%)" fill-opacity="1">
<use xlink:href="#glyph-0-3" x="253.219" y="32.869"/>
</g>
<g fill="rgb(0%, 35.293579%, 58.036804%)" fill-opacity="1">
<use xlink:href="#glyph-0-1" x="260.671055" y="32.869"/>
</g>
<path fill="none" stroke-width="0.648" stroke-linecap="butt" stroke-linejoin="miter" stroke="rgb(0%, 35.293579%, 58.036804%)" stroke-opacity="1" stroke-miterlimit="10" d="M -0.00025 0.00190625 L 14.460688 0.00190625 " transform="matrix(1, 0, 0, -1, 253.219, 38.248)"/>
<g fill="rgb(0%, 35.293579%, 58.036804%)" fill-opacity="1">
<use xlink:href="#glyph-0-0" x="257.775" y="47.812"/>
</g>
<path fill="none" stroke-width="1.59404" stroke-linecap="butt" stroke-linejoin="miter" stroke="rgb(90.194702%, 0%, 0%)" stroke-opacity="1" stroke-miterlimit="10" d="M 259.37175 0.001125 L 283.512375 0.001125 " transform="matrix(1, 0, 0, -1, 32.847, 64.423)"/>
<path fill-rule="nonzero" fill="rgb(90.194702%, 0%, 0%)" fill-opacity="1" stroke-width="1.17683" stroke-linecap="butt" stroke-linejoin="miter" stroke="rgb(90.194702%, 0%, 0%)" stroke-opacity="1" stroke-miterlimit="10" d="M 5.223416 0.001125 L 1.961698 1.184719 L 3.06326 0.001125 L 1.961698 -1.182469 Z M 5.223416 0.001125 " transform="matrix(1, 0, 0, -1, 313.59299, 64.423)"/>
<g fill="rgb(90.194702%, 0%, 0%)" fill-opacity="1">
<use xlink:href="#glyph-0-4" x="324.996" y="67.646"/>
</g>
<path fill="none" stroke-width="0.79701" stroke-linecap="butt" stroke-linejoin="miter" stroke="rgb(90.979004%, 47.059631%, 27.450562%)" stroke-opacity="1" stroke-miterlimit="10" d="M 263.078781 15.590969 L 284.012375 15.590969 " transform="matrix(1, 0, 0, -1, 32.847, 64.423)"/>
<path fill-rule="nonzero" fill="rgb(90.979004%, 47.059631%, 27.450562%)" fill-opacity="1" stroke-width="0.79701" stroke-linecap="butt" stroke-linejoin="miter" stroke="rgb(90.979004%, 47.059631%, 27.450562%)" stroke-opacity="1" stroke-miterlimit="10" d="M 4.842311 -0.00014875 L 1.287624 1.347508 L 2.471218 -0.00014875 L 1.287624 -1.347805 Z M 4.842311 -0.00014875 " transform="matrix(-1, 0, 0, 1, 298.19778, 48.83218)"/>
<path fill-rule="nonzero" fill="rgb(90.979004%, 47.059631%, 27.450562%)" fill-opacity="1" stroke-width="0.79701" stroke-linecap="butt" stroke-linejoin="miter" stroke="rgb(90.979004%, 47.059631%, 27.450562%)" stroke-opacity="1" stroke-miterlimit="10" d="M 4.844334 0.00014875 L 1.28574 1.347805 L 2.469334 0.00014875 L 1.28574 -1.347508 Z M 4.844334 0.00014875 " transform="matrix(1, 0, 0, -1, 314.58926, 48.83218)"/>
<g fill="rgb(90.979004%, 47.059631%, 27.450562%)" fill-opacity="1">
<use xlink:href="#glyph-0-5" x="300.547" y="44.778"/>
<use xlink:href="#glyph-0-0" x="306.883239" y="44.778"/>
</g>
<path fill-rule="nonzero" fill="rgb(90.979004%, 47.059631%, 27.450562%)" fill-opacity="1" stroke-width="0.79701" stroke-linecap="butt" stroke-linejoin="miter" stroke="rgb(95.292664%, 95.684814%, 95.684814%)" stroke-opacity="1" stroke-miterlimit="10" d="M 182.492844 0.001125 C 182.492844 1.376125 181.379563 2.489406 180.000656 2.489406 C 178.625656 2.489406 177.512375 1.376125 177.512375 0.001125 C 177.512375 -1.373875 178.625656 -2.491063 180.000656 -2.491063 C 181.379563 -2.491063 182.492844 -1.373875 182.492844 0.001125 Z M 182.492844 0.001125 " transform="matrix(1, 0, 0, -1, 32.847, 64.423)"/>
<path fill-rule="nonzero" fill="rgb(90.979004%, 47.059631%, 27.450562%)" fill-opacity="1" stroke-width="0.79701" stroke-linecap="butt" stroke-linejoin="miter" stroke="rgb(95.292664%, 95.684814%, 95.684814%)" stroke-opacity="1" stroke-miterlimit="10" d="M 261.863938 0.001125 C 261.863938 1.376125 260.74675 2.489406 259.37175 2.489406 C 257.99675 2.489406 256.883469 1.376125 256.883469 0.001125 C 256.883469 -1.373875 257.99675 -2.491063 259.37175 -2.491063 C 260.74675 -2.491063 261.863938 -1.373875 261.863938 0.001125 Z M 261.863938 0.001125 " transform="matrix(1, 0, 0, -1, 32.847, 64.423)"/>
<g fill="rgb(28.234863%, 28.625488%, 28.625488%)" fill-opacity="1">
<use xlink:href="#glyph-1-4" x="224.637" y="100.724"/>
<use xlink:href="#glyph-1-5" x="229.76776" y="100.724"/>
<use xlink:href="#glyph-1-6" x="232.358046" y="100.724"/>
<use xlink:href="#glyph-1-7" x="237.727909" y="100.724"/>
<use xlink:href="#glyph-1-2" x="242.240985" y="100.724"/>
<use xlink:href="#glyph-1-8" x="247.033015" y="100.724"/>
</g>
<g fill="rgb(28.234863%, 28.625488%, 28.625488%)" fill-opacity="1">
<use xlink:href="#glyph-1-7" x="250.490051" y="100.724"/>
</g>
<g fill="rgb(28.234863%, 28.625488%, 28.625488%)" fill-opacity="1">
<use xlink:href="#glyph-1-9" x="257.493787" y="100.724"/>
<use xlink:href="#glyph-1-7" x="262.514957" y="100.724"/>
</g>
<g fill="rgb(28.234863%, 28.625488%, 28.625488%)" fill-opacity="1">
<use xlink:href="#glyph-1-10" x="267.097772" y="100.724"/>
<use xlink:href="#glyph-1-7" x="272.377971" y="100.724"/>
<use xlink:href="#glyph-1-8" x="276.891047" y="100.724"/>
</g>
<g fill="rgb(28.234863%, 28.625488%, 28.625488%)" fill-opacity="1">
<use xlink:href="#glyph-0-4" x="118.658" y="122.469"/>
</g>
<g fill="rgb(28.234863%, 28.625488%, 28.625488%)" fill-opacity="1">
<use xlink:href="#glyph-0-7" x="127.205945" y="122.469"/>
</g>
<g fill="rgb(28.234863%, 28.625488%, 28.625488%)" fill-opacity="1">
<use xlink:href="#glyph-0-6" x="135.455011" y="122.469"/>
</g>
<g fill="rgb(28.234863%, 28.625488%, 28.625488%)" fill-opacity="1">
<use xlink:href="#glyph-0-8" x="142.488635" y="122.469"/>
</g>
<g fill="rgb(28.234863%, 28.625488%, 28.625488%)" fill-opacity="1">
<use xlink:href="#glyph-0-5" x="147.200964" y="122.469"/>
<use xlink:href="#glyph-0-0" x="153.537203" y="122.469"/>
</g>
<g fill="rgb(28.234863%, 28.625488%, 28.625488%)" fill-opacity="1">
<use xlink:href="#glyph-1-11" x="171.341" y="122.469"/>
<use xlink:href="#glyph-1-5" x="179.38085" y="122.469"/>
<use xlink:href="#glyph-1-1" x="181.971137" y="122.469"/>
</g>
<g fill="rgb(28.234863%, 28.625488%, 28.625488%)" fill-opacity="1">
<use xlink:href="#glyph-0-6" x="197.811" y="122.469"/>
</g>
<g fill="rgb(28.234863%, 28.625488%, 28.625488%)" fill-opacity="1">
<use xlink:href="#glyph-0-7" x="205.392569" y="122.469"/>
</g>
<g fill="rgb(28.234863%, 28.625488%, 28.625488%)" fill-opacity="1">
<use xlink:href="#glyph-0-3" x="214.843" y="114.499"/>
</g>
<g fill="rgb(28.234863%, 28.625488%, 28.625488%)" fill-opacity="1">
<use xlink:href="#glyph-0-1" x="222.295055" y="114.499"/>
</g>
<path fill="none" stroke-width="0.648" stroke-linecap="butt" stroke-linejoin="miter" stroke="rgb(28.234863%, 28.625488%, 28.625488%)" stroke-opacity="1" stroke-miterlimit="10" d="M 0.00075 0.00009375 L 14.461687 0.00009375 " transform="matrix(1, 0, 0, -1, 214.843, 119.879)"/>
<g fill="rgb(28.234863%, 28.625488%, 28.625488%)" fill-opacity="1">
<use xlink:href="#glyph-0-0" x="219.399" y="129.443"/>
</g>
</svg>
